<?xml version="1.0" encoding="utf-8"?>
<!-- Generator: Adobe Illustrator 16.0.2, SVG Export Plug-In . SVG Version: 6.00 Build 0)  -->
<!DOCTYPE svg PUBLIC "-//W3C//DTD SVG 1.1//EN" "http://www.w3.org/Graphics/SVG/1.1/DTD/svg11.dtd">
<svg version="1.1" xmlns="http://www.w3.org/2000/svg" xmlns:xlink="http://www.w3.org/1999/xlink" x="0px" y="0px"
	 width="283.46px" height="283.46px" viewBox="0 0 283.46 283.46" enable-background="new 0 0 283.46 283.46" xml:space="preserve">
<g id="Layer_13">
	<polyline fill="#A09F9F" points="-15.254,213.441 142.5,145.092 303.794,217.566 290.698,291.576 278,295.794 -29.54,295.794 	"/>
</g>
<g id="Layer_1">
	<polygon fill="#494949" points="283.46,213.441 141.387,148.167 141.387,0.351 283.46,0.351 	"/>
	<polygon fill="#A09F9F" points="273.53,198.183 146.5,142.813 146.5,7.755 273.53,10.633 	"/>
	<polygon fill="#494949" points="0,213.441 142.072,148.167 142.072,0.351 0,0.351 	"/>
	<polygon fill="#A09F9F" points="9.93,198.183 136.96,142.813 136.96,7.755 9.93,10.633 	"/>
</g>
<g id="Layer_6">
	<polygon fill="#BFBFBF" points="224.556,126.393 186.768,111.486 186.768,107.536 224.556,122.428 	"/>
	<polygon fill="#996E5C" points="218.432,173.435 186.768,154.714 186.768,110.961 224.556,126.393 211.287,145.092 210.7,162.971 	
		"/>
</g>
<g id="Layer_5">
	<polyline fill="#996E5C" points="162.7,200.542 218.627,172.898 186.891,153.12 131.036,181.821 	"/>
	<polyline fill="#BC8B7E" points="154.969,190.078 210.7,162.971 218.432,173.435 162.7,200.542 	"/>
	<polyline fill="#A57767" points="154.969,190.078 155.556,172.199 211.287,145.092 210.7,162.971 	"/>
	<polyline fill="#BFBFBF" points="168.932,153.5 224.556,126.393 224.556,122.428 168.932,149.535 	"/>
</g>
<g id="Layer_3">
	<polygon fill="#BFBFBF" points="169.107,154.109 131.036,138.594 131.036,134.644 169.107,149.535 	"/>
	<polygon fill="#996E5C" points="162.7,200.542 131.036,181.821 131.036,138.068 168.824,153.5 155.556,172.199 154.969,190.078 	
		"/>
</g>
<g id="Layer_11">
	<path fill="#3C3E3A" d="M220.55,185.938c0,2.163-1.649,2.944-3.658,1.757c-1.979-1.17-3.564-3.818-3.564-5.928
		c0-2.108,1.585-2.925,3.564-1.809C218.9,181.09,220.55,183.774,220.55,185.938z"/>
	<path fill="#3C3E3A" d="M259.008,208.148c0,2.455-2.121,3.193-4.697,1.669c-2.536-1.498-4.563-4.632-4.563-7.017
		c0-2.383,2.027-3.173,4.563-1.743C256.887,202.511,259.008,205.696,259.008,208.148z"/>
	<path fill="#3C3E3A" d="M200.55,195.938c0,2.163-1.649,2.944-3.658,1.757c-1.979-1.17-3.564-3.818-3.564-5.928
		c0-2.108,1.585-2.925,3.564-1.809C198.9,191.09,200.55,193.774,200.55,195.938z"/>
	<path fill="#3C3E3A" d="M239.008,218.148c0,2.455-2.121,3.193-4.697,1.669c-2.536-1.498-4.563-4.632-4.563-7.017
		c0-2.383,2.027-3.173,4.563-1.743C236.887,212.511,239.008,215.696,239.008,218.148z"/>
</g>
<g id="Layer_9">
	<polygon fill="#716D6B" points="252.696,209.815 211.003,185.735 211.003,182.321 252.696,205.895 	"/>
	<path fill="#3C3E3A" d="M213.55,189.938c0,2.163-1.649,2.944-3.658,1.757c-1.979-1.17-3.564-3.818-3.564-5.928
		c0-2.108,1.585-2.925,3.564-1.809C211.9,185.09,213.55,187.774,213.55,189.938z"/>
	<path fill="#3C3E3A" d="M252.008,212.148c0,2.455-2.121,3.193-4.697,1.669c-2.536-1.498-4.563-4.632-4.563-7.017
		c0-2.383,2.027-3.173,4.563-1.743C249.887,206.511,252.008,209.696,252.008,212.148z"/>
	<polygon fill="#716D6B" points="227.209,165.935 233.681,169.037 233.681,196.987 227.209,193.289 	"/>
	<polygon fill="#716D6B" points="250.25,161.134 250.25,182.536 247.657,181.249 247.657,160.02 	"/>
	<path fill="#3C3E3A" d="M245.747,115.831c0-1.68,1.427-2.64,3.202-2.137l0,0c1.797,0.508,3.267,2.314,3.267,4.028v51.919
		c0,1.715-1.47,2.425-3.267,1.592l0,0c-1.775-0.822-3.202-2.847-3.202-4.526V115.831z"/>
	<path fill="#3C3E3A" d="M252.696,180.012c0,2.166-1.857,2.997-4.119,1.871l-34.374-17.094c-1.776-0.884-3.2-3.118-3.2-5.006l0,0
		c0-1.885,1.424-2.738,3.2-1.897l34.374,16.258C250.839,175.214,252.696,177.846,252.696,180.012L252.696,180.012z"/>
	<polyline fill="#716D6B" points="213.681,206.987 233.681,196.987 227.209,193.289 207.209,203.289 	"/>
	<polyline fill="#494949" points="192.608,167.585 212.938,157.563 248.577,174.144 231.85,191.461 	"/>
	<polyline fill="#716D6B" points="250.25,175.935 230.25,186.854 230.25,181.756 250.25,171.277 	"/>
	<polyline fill="#3C3E3A" points="230.25,186.854 250.25,175.935 251.04,182.321 231.301,192.249 	"/>
</g>
<g id="Layer_10">
	<polyline fill="#3C3E3A" points="246.61,113.999 225.876,123.626 230.445,181.461 251.367,171.277 	"/>
</g>
<g id="Layer_8">
	<polygon fill="#716D6B" points="232.696,219.815 191.003,195.735 191.003,192.321 232.696,215.895 	"/>
	<path fill="#3C3E3A" d="M193.55,199.938c0,2.163-1.649,2.944-3.658,1.757c-1.979-1.17-3.564-3.818-3.564-5.928
		c0-2.108,1.585-2.925,3.564-1.809C191.9,195.09,193.55,197.774,193.55,199.938z"/>
	<path fill="#3C3E3A" d="M232.008,222.148c0,2.455-2.121,3.193-4.697,1.669c-2.536-1.498-4.563-4.632-4.563-7.017
		c0-2.383,2.027-3.173,4.563-1.743C229.887,216.511,232.008,219.696,232.008,222.148z"/>
	<polygon fill="#716D6B" points="207.209,175.935 213.681,179.037 213.681,206.987 207.209,203.289 	"/>
	<polygon fill="#716D6B" points="230.25,171.134 230.25,192.536 227.657,191.249 227.657,170.02 	"/>
	<path fill="#3C3E3A" d="M225.747,125.831c0-1.68,1.427-2.64,3.202-2.137l0,0c1.797,0.508,3.267,2.314,3.267,4.028v51.919
		c0,1.715-1.47,2.425-3.267,1.592l0,0c-1.775-0.822-3.202-2.847-3.202-4.526V125.831z"/>
	<path fill="#3C3E3A" d="M232.696,190.012c0,2.166-1.857,2.997-4.119,1.871l-34.374-17.094c-1.776-0.884-3.2-3.118-3.2-5.006l0,0
		c0-1.885,1.424-2.738,3.2-1.897l34.374,16.258C230.839,185.214,232.696,187.846,232.696,190.012L232.696,190.012z"/>
</g>
<g id="Layer_12">
	<polyline fill="#3C3E3A" points="230.445,224.523 238.521,219.815 230.848,210.61 223.224,214.345 	"/>
	<polyline fill="#3C3E3A" points="250.613,214.455 258.689,209.747 251.016,200.542 243.392,204.276 	"/>
	<polyline fill="#3C3E3A" points="187.07,193.854 193.847,190.078 199.256,196.987 192.608,201.994 	"/>
</g>
<g id="Layer_7">
	<polyline fill="#8E6455" points="155.556,172.199 168.824,153.5 224.556,126.393 211.287,145.092 	"/>
	<polyline fill="#BFBFBF" points="131.142,135.993 168.879,150.885 224.661,123.777 186.873,108.886 	"/>
	<polyline fill="#BFBFBF" points="131.142,134.644 168.879,149.535 224.661,122.428 186.873,107.536 	"/>
</g>
<g id="Layer_4">
	<g>
		<ellipse fill="#606060" cx="160.552" cy="135.989" rx="5.525" ry="1.397"/>
		<rect x="155.026" y="134.354" fill="#606060" width="11.051" height="1.635"/>
		<ellipse fill="#606060" cx="160.552" cy="134.47" rx="5.525" ry="1.397"/>
	</g>
	<path fill="#878787" d="M158.933,133.696c0,0-2.52-14.367,2.016-18.626c4.702-4.417,11.197,3.528,9.979,3.099
		c-15.434-5.445-9.609,13.672-8.495,16.883"/>
	<polygon fill="#606060" points="182.969,121.859 172.765,129.886 166.861,118.086 170.465,114.969 	"/>
	<path fill="#878787" d="M162.395,135.151c-0.169,0.442-1.095,0.498-2.063,0.126c-0.973-0.374-1.621-1.036-1.451-1.478
		c0.171-0.442,1.097-0.499,2.068-0.125C161.916,134.047,162.565,134.709,162.395,135.151z"/>
	
		<ellipse transform="matrix(0.7798 -0.626 0.626 0.7798 -39.7005 139.1132)" fill="#7F7F7F" cx="177.902" cy="125.992" rx="6.503" ry="2.177"/>
	<defs>
		<filter id="Adobe_OpacityMaskFilter" filterUnits="userSpaceOnUse" x="174.48" y="122.3" width="4.144" height="4.181">
			<feColorMatrix  type="matrix" values="1 0 0 0 0  0 1 0 0 0  0 0 1 0 0  0 0 0 1 0"/>
		</filter>
	</defs>
	<mask maskUnits="userSpaceOnUse" x="174.48" y="122.3" width="4.144" height="4.181" id="SVGID_1_">
		<g filter="url(#Adobe_OpacityMaskFilter)">
			
				<ellipse transform="matrix(0.7798 -0.626 0.626 0.7798 -39.7005 139.1132)" fill="#7F7F7F" cx="177.902" cy="125.992" rx="6.503" ry="2.177"/>
		</g>
	</mask>
	<ellipse mask="url(#SVGID_1_)" fill="#D6D6C4" cx="176.552" cy="124.391" rx="2.072" ry="2.091"/>
</g>
</svg>
