<?xml version="1.0" encoding="utf-8"?>
<!-- Generator: Adobe Illustrator 16.0.2, SVG Export Plug-In . SVG Version: 6.00 Build 0)  -->
<!DOCTYPE svg PUBLIC "-//W3C//DTD SVG 1.1//EN" "http://www.w3.org/Graphics/SVG/1.1/DTD/svg11.dtd">
<svg version="1.1" xmlns="http://www.w3.org/2000/svg" xmlns:xlink="http://www.w3.org/1999/xlink" x="0px" y="0px"
	 width="283.46px" height="283.46px" viewBox="0 0 283.46 283.46" enable-background="new 0 0 283.46 283.46" xml:space="preserve">
<g id="Layer_1">
	<rect fill="#494949" width="283.46" height="283.46"/>
</g>
<g id="Layer_2">
	<rect x="14.477" y="13.976" fill="#A09F9F" width="254.94" height="254.941"/>
	<g>
		<g>
			<g>
				
					<rect x="34.847" y="38.534" transform="matrix(-0.9876 0.1572 -0.1572 -0.9876 202.2498 179.6384)" fill="#304358" width="118.347" height="118.569"/>
			</g>
		</g>
		<g>
			<path fill="#FFFFFF" d="M115.465,114.455c-1.254,0.863-3.762,1.841-5.69,2.197c-5.822,1.087-7.635-2.995-8.175-6.079
				L97.98,87.839l14.666-2.335l-1.761-11.058l-14.615,2.327l-2.962-18.604c0,0-10.523,1.675-10.695,1.703
				c-0.176,0.028-0.459,0.231-0.441,0.629c0.281,5.793-0.792,16.211-11.235,21.971l1.501,9.433l7.391-1.177l3.799,23.862
				c1.301,8.17,9.175,18.819,25.042,16.011c5.354-0.945,10.958-4.142,11.965-6.291L115.465,114.455"/>
		</g>
	</g>
	<ellipse fill="#BFBFBF" cx="140.677" cy="32.874" rx="2.106" ry="2.073"/>
	<ellipse fill="#BFBFBF" cx="30.66" cy="51.431" rx="2.106" ry="2.073"/>
	<ellipse fill="#BFBFBF" cx="158.465" cy="144.573" rx="2.106" ry="2.073"/>
	<ellipse fill="#BFBFBF" cx="47.526" cy="161.02" rx="2.106" ry="2.073"/>
</g>
</svg>
