<?xml version="1.0" encoding="utf-8"?>
<!-- Generator: Adobe Illustrator 16.0.2, SVG Export Plug-In . SVG Version: 6.00 Build 0)  -->
<!DOCTYPE svg PUBLIC "-//W3C//DTD SVG 1.1//EN" "http://www.w3.org/Graphics/SVG/1.1/DTD/svg11.dtd">
<svg version="1.1" xmlns="http://www.w3.org/2000/svg" xmlns:xlink="http://www.w3.org/1999/xlink" x="0px" y="0px"
	 width="283.46px" height="283.46px" viewBox="0 0 283.46 283.46" enable-background="new 0 0 283.46 283.46" xml:space="preserve">
<g id="Layer_1">
	<rect fill="#494949" width="283.46" height="283.46"/>
</g>
<g id="Layer_2">
	<rect x="14.477" y="13.976" fill="#A09F9F" width="254.94" height="254.941"/>
	<g>
		<rect x="42.762" y="97.006" fill="#E8DDD5" width="95.653" height="115.811"/>
		<rect x="38.414" y="89.298" fill="#9E837E" width="105.533" height="9.684"/>
		<rect x="86.635" y="74.476" fill="#9E837E" width="9.091" height="19.664"/>
		<rect x="38.414" y="212.816" fill="#9E837E" width="103.953" height="5.139"/>
		
			<rect x="56.972" y="215.273" transform="matrix(0.9783 0.2071 -0.2071 0.9783 51.4322 -7.0197)" fill="#9E837E" width="4.546" height="53.756"/>
		<rect x="88.201" y="212.816" fill="#9E837E" width="3.96" height="56.102"/>
		
			<rect x="118.78" y="215.273" transform="matrix(-0.9783 0.2071 -0.2071 -0.9783 289.63 453.9839)" fill="#9E837E" width="4.546" height="53.756"/>
		<rect x="53.116" y="254.033" fill="#9E837E" width="71.708" height="3.053"/>
	</g>
	
		<rect x="180.313" y="234.611" transform="matrix(0.9889 0.1482 -0.1482 0.9889 38.3351 -24.1403)" fill="#D2BEB0" width="1.581" height="20.949"/>
	<rect x="171.372" y="234.611" fill="#D2BEB0" width="1.581" height="20.948"/>
	
		<rect x="172.162" y="234.612" transform="matrix(0.877 -0.4805 0.4805 0.877 -96.4888 113.2492)" fill="#D2BEB0" width="1.581" height="20.948"/>
	<rect x="171.372" y="246.688" fill="#CEECC5" width="11.462" height="22.229"/>
	<path fill="#FFFFFF" d="M165.906,235.961c-0.323-0.59-0.565-1.138-0.278-1.695c0.172-0.334-0.958-1.922-0.555-1.948
		c0.893-0.057,2.105,0.243,2.479,0.277c0.623,0.059,1.451,0.901,1.774,1.491c0.519,0.945,0.172,2.131-0.772,2.647
		C167.609,237.252,166.425,236.905,165.906,235.961z"/>
	<path fill="#FFFFFF" d="M184.487,233.744c-0.175-0.649-0.379-1.212-0.973-1.416c-0.355-0.122-0.639-2.05-0.948-1.79
		c-0.684,0.577-1.351,1.633-1.598,1.917c-0.409,0.474-0.423,1.655-0.248,2.305c0.28,1.041,1.351,1.656,2.39,1.376
		C184.152,235.855,184.767,234.785,184.487,233.744z"/>
	<path fill="#FFFFFF" d="M174.065,233.062c-0.175-0.649-0.379-1.212-0.973-1.416c-0.355-0.122-0.639-2.05-0.948-1.79
		c-0.684,0.577-1.351,1.633-1.598,1.917c-0.409,0.474-0.423,1.655-0.248,2.305c0.28,1.041,1.351,1.656,2.39,1.376
		C173.73,235.173,174.345,234.103,174.065,233.062z"/>
	<path fill="#262B8F" d="M172.211,229.589l-1.786,2.111c0,0-0.384,0.264,0.144,0.578c0.526,0.314,0.931-0.947,0.954-0.559
		c0.024,0.389-0.202,0.85,0.2,1.092c0.403,0.242,0.629,1.067,0.805,0.606s0.251-0.849,0.401-1.188s0.527-0.218,0.653,0
		c0.125,0.218,0.611,0.466,0.498,0.18s-0.537-1.064-1.032-1.168S172.823,229.834,172.211,229.589z"/>
	<path fill="#27963E" d="M182.603,230.327l-1.786,2.111c0,0-0.384,0.264,0.144,0.578c0.526,0.314,0.931-0.947,0.954-0.559
		c0.024,0.389-0.202,0.85,0.2,1.092c0.403,0.242,0.629,1.067,0.805,0.606s0.251-0.849,0.401-1.188s0.527-0.218,0.653,0
		c0.125,0.218,0.611,0.466,0.498,0.18s-0.537-1.064-1.032-1.168S183.215,230.572,182.603,230.327z"/>
	<path fill="#9E2C8B" d="M164.862,232.197l2.745,0.329c0,0,0.46-0.066,0.289,0.521c-0.172,0.59-1.326-0.06-1.079,0.242
		c0.247,0.301,0.728,0.484,0.597,0.935c-0.13,0.452,0.267,1.211-0.176,0.991c-0.443-0.216-0.762-0.449-1.104-0.596
		c-0.342-0.146-0.534,0.2-0.479,0.445c0.057,0.244-0.13,0.758-0.241,0.471c-0.112-0.286-0.332-1.145-0.041-1.557
		C165.666,233.565,164.581,232.795,164.862,232.197z"/>
	<path fill="#9E2C8B" d="M60.424,159.779c0,0-6.508-6.758-5.416-11.717c3.792-17.208,17.533-10.885,14.007-24.867
		c-3.526-13.981,11.093-15.793,14.099-3.272c3.006,12.521,17.694,33.99,1.729,26.004c-15.965-7.984-1.094,21.162-6.948,14.357
		c-5.854-6.803-9.896,24.268-13.683,11.881s-9.992,6.473-8.412-8.59"/>
	<path fill="#262B8F" d="M118.873,98.982c0,0,2.774,13.478,5.951,9.51s6.748-8.333,6.748,2.381s-3.175,37.461,0,31.627
		c3.175-5.833-0.494-22.104,3.175-29.246s3.668-14.271,3.668-14.271H118.873z"/>
	<path fill="#27963E" d="M118.873,162.835c-3.175,9.942-23.413-3.152-20.238,5.975s9.419,24.999,14.63,18.65
		s1.636-5.706,11.559-11.583s9.526,1.009,8.732,13.042s3.571,6.221,3.174,0s2.777-20.551-2.778-26.084
		S118.873,162.835,118.873,162.835z"/>
</g>
<g id="Layer_3">
	<line fill="#F5F6B5" stroke="#494949" stroke-miterlimit="10" x1="210.984" y1="13.976" x2="210.984" y2="98.982"/>
	<circle fill="#F5F6B5" cx="210.984" cy="102.982" r="6.746"/>
	<rect x="207.396" y="90.964" fill="#F5F6B5" width="7.176" height="7.176"/>
	<rect x="207.396" y="90.964" fill="#7C7C7C" width="7.176" height="1.588"/>
	<line fill="none" stroke="#A09F9F" stroke-width="0.25" stroke-miterlimit="10" x1="209.5" y1="92.552" x2="209.5" y2="98.688"/>
	<line fill="none" stroke="#A09F9F" stroke-width="0.25" stroke-miterlimit="10" x1="209.5" y1="98.688" x2="207.396" y2="103.25"/>
	
		<line fill="none" stroke="#A09F9F" stroke-width="0.25" stroke-miterlimit="10" x1="207.396" y1="103.25" x2="214.625" y2="103.25"/>
	
		<line fill="none" stroke="#A09F9F" stroke-width="0.25" stroke-miterlimit="10" x1="212.521" y1="92.552" x2="212.521" y2="98.688"/>
	
		<line fill="none" stroke="#A09F9F" stroke-width="0.25" stroke-miterlimit="10" x1="212.521" y1="98.688" x2="214.625" y2="103.25"/>
</g>
<g id="Layer_4">
</g>
</svg>
