<?xml version="1.0" encoding="utf-8"?>
<!-- Generator: Adobe Illustrator 16.0.2, SVG Export Plug-In . SVG Version: 6.00 Build 0)  -->
<!DOCTYPE svg PUBLIC "-//W3C//DTD SVG 1.1//EN" "http://www.w3.org/Graphics/SVG/1.1/DTD/svg11.dtd">
<svg version="1.1" xmlns="http://www.w3.org/2000/svg" xmlns:xlink="http://www.w3.org/1999/xlink" x="0px" y="0px"
	 width="283.46px" height="283.46px" viewBox="0 0 283.46 283.46" enable-background="new 0 0 283.46 283.46" xml:space="preserve">
<g id="Layer_1">
	<rect fill="#494949" width="283.46" height="283.46"/>
</g>
<g id="Layer_3">
	<rect x="14.477" y="13.976" fill="#A09F9F" width="254.94" height="254.941"/>
	<path fill="#8AC08A" d="M226.413,190.771l5.158-7.647c0,0-5.952-10.346,0-23.044s3.969-3.216,3.969-3.216l0.317,21.852v12.056
		H226.413L226.413,190.771"/>
	<path fill="#8AC08A" d="M243.856,190.771l-5.158-7.647c0,0,5.952-10.346,0-23.044s-3.969-3.216-3.969-3.216l-0.317,21.852v12.056
		H243.856L243.856,190.771"/>
	<polygon fill="#DAECB3" points="251.92,168.457 218.904,168.457 226.553,139.27 244.27,139.27 	"/>
</g>
<g id="Layer_2">
	<g>
		<polygon fill="#CC1F1F" points="190.739,190.771 161.49,190.771 169.49,174.751 182.739,174.751 		"/>
		<circle fill="#E7D8D8" cx="175.708" cy="183.227" r="6.522"/>
		<circle fill="#AFAFAF" cx="175.708" cy="183.227" r="6.202"/>
		<circle fill="#E7D8D8" cx="172.452" cy="179.701" r="1.131"/>
		<circle fill="#E7D8D8" cx="171.028" cy="183.123" r="1.131"/>
		<circle fill="#E7D8D8" cx="178.797" cy="186.336" r="1.131"/>
		<circle fill="#E7D8D8" cx="175.512" cy="187.68" r="1.131"/>
		<circle fill="#E7D8D8" cx="178.941" cy="179.846" r="1.131"/>
		<circle fill="#E7D8D8" cx="180.285" cy="183.124" r="1.131"/>
		<circle fill="#E7D8D8" cx="175.708" cy="178.322" r="1.131"/>
		<circle fill="#E7D8D8" cx="172.307" cy="186.191" r="1.131"/>
	</g>
	<path fill="#CC1F1F" d="M160.717,176.704h5.875c0,0,0.188-3.438,0-3.875s-0.938-1.75-0.438-1.625s6.48-0.009,6.48-0.009v-3.616
		h-10.418h-1.5C160.717,167.579,159.279,174.704,160.717,176.704z"/>
	<path fill="#CC1F1F" d="M191.309,176.704h-5.875c0,0-0.188-3.438,0-3.875s0.938-1.75,0.438-1.625s-6.48-0.009-6.48-0.009v-3.616
		h10.418h1.5C191.309,167.579,192.746,174.704,191.309,176.704z"/>
	<rect x="169.719" y="167.579" fill="#CC1F1F" width="12.241" height="3.678"/>
	<rect x="171.176" y="170.563" fill="#CC1F1F" width="0.983" height="5.063"/>
	<rect x="179.072" y="170.563" fill="#CC1F1F" width="0.928" height="5.063"/>
	<path fill="none" stroke="#CC1F1F" stroke-miterlimit="10" d="M187.252,187.049c0.403-1.661,0.841-3.773,2.728-4.391
		c1.443-0.472,2.843,0.477,3.095,1.906c0.186,1.054,0.338,2.753-0.858,3.332c-1.361,0.658-1.479-2.181-1.303-2.887
		c0.165-0.659,0.492-1.278,0.896-1.819c0.454-0.605,1.064-1.429,1.753-1.773c1.063-0.532,2.639-0.522,3.458,0.418
		c0.999,1.147,1.02,2.645,0.844,4.074c-0.044,0.354-0.08,0.903-0.437,1.068c-0.48,0.223-0.915-0.279-1.093-0.668
		c-0.703-1.534,0.271-3.425,1.586-4.243c1.209-0.751,3.127-0.979,4.057,0.298c0.727,0.999,1.535,3.135,0.854,4.329
		c-0.309,0.541-1.647,1.715-1.815,0.559c-0.18-1.249,0.719-2.206,1.863-2.443c1.139-0.236,2.431-0.206,2.933,0.977
		c0.463,1.09,0.645,2.715,0.115,3.787c-0.358,0.725-0.992,1.49-1.693,1.906c-0.269,0.158-1.258,0.615-1.471,0.204
		c-0.291-0.561,0.893-1.502,1.295-1.666c0.73-0.299,1.601-0.253,2.345-0.039c1.102,0.317,2.25,1.719,1.598,2.839
		c-0.627,1.074-1.38,2.225-2.33,3.032c-0.453,0.386-0.957,0.714-1.571,0.687c-0.34-0.016-0.928-0.098-1.053-0.49
		c-0.356-1.112,2.163-1.434,2.767-1.511c1.481-0.188,2.652,1.007,3.864,1.713"/>
	<rect x="85.54" y="195.305" fill="#8F655E" width="174.765" height="73.612"/>
	<rect x="75.222" y="190.771" fill="#3C3A39" width="188.245" height="11.858"/>
	<rect x="89.111" y="156.863" fill="#625A57" width="43.65" height="30.556"/>
	<rect x="89.111" y="187.419" fill="#443F3D" width="43.65" height="3.352"/>
	<rect x="91.438" y="158.492" fill="#D0CCC7" width="38.996" height="27.298"/>
	<g>
		<path fill="#383533" d="M114.836,180.919c-1.397,0.738-2.82,1.017-4.522,1.017c-4.167,0-7.698-3.048-7.698-7.927
			c0-5.233,3.633-9.757,9.273-9.757c4.421,0,7.368,3.101,7.368,7.343c0,3.812-2.108,6.048-4.497,6.048
			c-1.016,0-1.931-0.661-1.88-2.236h-0.076c-0.915,1.499-2.083,2.236-3.608,2.236c-1.474,0-2.744-1.194-2.744-3.202
			c0-3.15,2.49-6.021,6.021-6.021c1.092,0,2.083,0.229,2.719,0.534l-0.838,4.599c-0.381,1.931-0.102,2.82,0.737,2.845
			c1.296,0.052,2.744-1.702,2.744-4.623c0-3.71-2.21-6.352-6.148-6.352c-4.142,0-7.623,3.276-7.623,8.46
			c0,4.218,2.77,6.835,6.53,6.835c1.474,0,2.82-0.305,3.836-0.89L114.836,180.919z M113.465,169.969
			c-0.254-0.102-0.686-0.202-1.271-0.202c-2.261,0-4.065,2.108-4.065,4.572c0,1.144,0.559,1.931,1.677,1.931
			c1.474,0,2.846-1.88,3.125-3.455L113.465,169.969z"/>
	</g>
</g>
</svg>
