<?xml version="1.0" encoding="utf-8"?>
<!-- Generator: Adobe Illustrator 16.0.2, SVG Export Plug-In . SVG Version: 6.00 Build 0)  -->
<!DOCTYPE svg PUBLIC "-//W3C//DTD SVG 1.1//EN" "http://www.w3.org/Graphics/SVG/1.1/DTD/svg11.dtd">
<svg version="1.1" id="Layer_1" xmlns="http://www.w3.org/2000/svg" xmlns:xlink="http://www.w3.org/1999/xlink" x="0px" y="0px"
	 width="283.46px" height="283.46px" viewBox="0 0 283.46 283.46" enable-background="new 0 0 283.46 283.46" xml:space="preserve">
<path fill="#C9C9C9" d="M191.73,241.263c-54.971,0-99.533-44.563-99.533-99.533s44.563-99.533,99.533-99.533
	c29.945,0,56.799,13.228,75.046,34.156c0.222-0.041,0.441-0.083,0.663-0.124C243.786,30.928,196.373,0,141.73,0
	C63.455,0,0,63.455,0,141.73c0,78.275,63.455,141.73,141.73,141.73c55.277,0,103.157-31.648,126.524-77.811
	c-0.045-0.039-0.091-0.077-0.137-0.116C249.859,227.369,222.419,241.263,191.73,241.263z"/>
<path fill="#C9C9C9" d="M191.73,42.197c-54.971,0-99.533,44.563-99.533,99.533s44.563,99.533,99.533,99.533
	c29.945,0,56.799-13.228,75.046-34.156c0.222,0.041,0.441,0.083,0.663,0.124c-23.653,45.301-71.066,76.229-125.709,76.229
	C63.455,283.46,0,220.006,0,141.73C0,63.455,63.455,0,141.73,0c55.277,0,103.157,31.648,126.524,77.811
	c-0.045,0.039-0.091,0.077-0.137,0.116C249.859,56.091,222.419,42.197,191.73,42.197z"/>
</svg>
