<?xml version="1.0" encoding="utf-8"?>
<!-- Generator: Adobe Illustrator 16.0.2, SVG Export Plug-In . SVG Version: 6.00 Build 0)  -->
<!DOCTYPE svg PUBLIC "-//W3C//DTD SVG 1.1//EN" "http://www.w3.org/Graphics/SVG/1.1/DTD/svg11.dtd">
<svg version="1.1" xmlns="http://www.w3.org/2000/svg" xmlns:xlink="http://www.w3.org/1999/xlink" x="0px" y="0px"
	 width="283.46px" height="283.46px" viewBox="0 0 283.46 283.46" enable-background="new 0 0 283.46 283.46" xml:space="preserve">
<g id="Layer_3">
	<rect x="122.146" y="196.147" fill="#5E4B21" width="41.107" height="86.166"/>
</g>
<g id="Layer_7">
	<g>
		<path fill="#47351A" d="M130.32,190.109c0,0,0.13,0.768,0.297,2.11c0.167,1.344,0.384,3.263,0.561,5.564
			c0.093,1.151,0.194,2.398,0.258,3.718c0.073,1.319,0.166,2.711,0.202,4.149c0.039,1.439,0.124,2.927,0.129,4.438
			c0.018,1.511,0.035,3.046,0.052,4.581c-0.015,1.535-0.029,3.07-0.044,4.581c-0.014,1.511-0.093,2.998-0.134,4.438
			c-0.104,2.878-0.266,5.564-0.459,7.867c-0.176,2.302-0.395,4.221-0.563,5.564c-0.167,1.343-0.298,2.11-0.298,2.11
			s-0.131-0.768-0.298-2.11c-0.168-1.344-0.387-3.263-0.563-5.564c-0.194-2.303-0.355-4.989-0.459-7.867
			c-0.042-1.439-0.12-2.927-0.134-4.438c-0.015-1.511-0.029-3.046-0.044-4.581c0.018-1.535,0.035-3.07,0.052-4.581
			c0.006-1.511,0.09-2.998,0.129-4.438c0.036-1.438,0.129-2.83,0.202-4.149c0.064-1.319,0.165-2.566,0.258-3.718
			c0.176-2.302,0.394-4.221,0.561-5.564C130.19,190.877,130.32,190.109,130.32,190.109z"/>
	</g>
	<g>
		<path fill="#47351A" d="M155.612,286.46c0,0-0.13-0.738-0.297-2.029c-0.167-1.292-0.384-3.137-0.561-5.351
			c-0.093-1.106-0.194-2.306-0.258-3.574c-0.073-1.269-0.166-2.605-0.202-3.989c-0.039-1.384-0.123-2.813-0.13-4.267
			c-0.017-1.453-0.034-2.929-0.052-4.404c0.015-1.477,0.029-2.952,0.044-4.405c0.014-1.453,0.093-2.883,0.134-4.267
			c0.105-2.767,0.267-5.35,0.46-7.563c0.177-2.214,0.395-4.059,0.563-5.351c0.168-1.291,0.299-2.029,0.299-2.029
			s0.131,0.738,0.299,2.029c0.168,1.292,0.386,3.137,0.563,5.351c0.193,2.214,0.354,4.797,0.46,7.563
			c0.041,1.384,0.12,2.813,0.134,4.267c0.015,1.453,0.029,2.929,0.044,4.405c-0.018,1.476-0.035,2.951-0.052,4.404
			c-0.007,1.453-0.091,2.883-0.13,4.267c-0.036,1.384-0.129,2.721-0.202,3.989c-0.063,1.269-0.165,2.468-0.258,3.574
			c-0.177,2.214-0.394,4.059-0.561,5.351C155.742,285.722,155.612,286.46,155.612,286.46z"/>
	</g>
	<g>
		<path fill="#47351A" d="M159.114,193.222c0,0,0.13,0.639,0.297,1.756s0.384,2.713,0.561,4.628
			c0.197,1.915,0.345,4.149,0.469,6.543c0.111,2.395,0.169,4.948,0.174,7.502c-0.004,2.553-0.06,5.106-0.17,7.501
			c-0.123,2.394-0.271,4.628-0.469,6.543c-0.177,1.915-0.395,3.511-0.563,4.628s-0.299,1.756-0.299,1.756s-0.131-0.639-0.299-1.756
			s-0.386-2.713-0.563-4.628c-0.198-1.915-0.346-4.149-0.469-6.543c-0.11-2.395-0.166-4.948-0.17-7.501
			c0.005-2.554,0.063-5.107,0.174-7.502c0.124-2.394,0.271-4.628,0.469-6.543c0.177-1.915,0.394-3.511,0.561-4.628
			S159.114,193.222,159.114,193.222z"/>
	</g>
	<g>
		<path fill="#47351A" d="M139.324,285.479c0,0-0.13-0.839-0.297-2.308c-0.167-1.468-0.384-3.565-0.561-6.082
			c-0.093-1.259-0.194-2.622-0.258-4.064c-0.073-1.442-0.166-2.963-0.202-4.536c-0.039-1.572-0.124-3.198-0.129-4.851
			c-0.018-1.651-0.035-3.329-0.052-5.008c0.015-1.678,0.029-3.355,0.044-5.008c0.014-1.651,0.093-3.277,0.134-4.85
			c0.104-3.146,0.266-6.083,0.459-8.601c0.176-2.517,0.395-4.614,0.563-6.082c0.167-1.469,0.298-2.308,0.298-2.308
			s0.131,0.839,0.298,2.308c0.168,1.468,0.387,3.565,0.563,6.082c0.194,2.518,0.355,5.454,0.459,8.601
			c0.042,1.572,0.12,3.198,0.134,4.85c0.015,1.652,0.029,3.33,0.044,5.008c-0.018,1.679-0.035,3.356-0.052,5.008
			c-0.006,1.652-0.09,3.278-0.129,4.851c-0.036,1.573-0.129,3.094-0.202,4.536c-0.064,1.442-0.165,2.806-0.258,4.064
			c-0.176,2.517-0.394,4.614-0.561,6.082C139.454,284.64,139.324,285.479,139.324,285.479z"/>
	</g>
	<g>
		<path fill="#47351A" d="M148.612,224.46c0,0-0.13-0.738-0.297-2.029c-0.167-1.292-0.384-3.137-0.561-5.351
			c-0.093-1.106-0.194-2.306-0.258-3.574c-0.073-1.269-0.166-2.605-0.202-3.989c-0.039-1.384-0.123-2.813-0.13-4.267
			c-0.017-1.453-0.034-2.929-0.052-4.404c0.015-1.477,0.029-2.952,0.044-4.405c0.014-1.453,0.093-2.883,0.134-4.267
			c0.105-2.767,0.267-5.35,0.46-7.563c0.177-2.214,0.395-4.059,0.563-5.351c0.168-1.291,0.299-2.029,0.299-2.029
			s0.131,0.738,0.299,2.029c0.168,1.292,0.386,3.137,0.563,5.351c0.193,2.214,0.354,4.797,0.46,7.563
			c0.041,1.384,0.12,2.813,0.134,4.267c0.015,1.453,0.029,2.929,0.044,4.405c-0.018,1.476-0.035,2.951-0.052,4.404
			c-0.007,1.453-0.091,2.883-0.13,4.267c-0.036,1.384-0.129,2.721-0.202,3.989c-0.063,1.269-0.165,2.468-0.258,3.574
			c-0.177,2.214-0.394,4.059-0.561,5.351C148.742,223.722,148.612,224.46,148.612,224.46z"/>
	</g>
</g>
<g id="Layer_8">
	<g>
		<path fill="#543E22" d="M130.32,185.963c0,0,0.13,0.768,0.297,2.11c0.167,1.344,0.384,3.263,0.561,5.564
			c0.093,1.151,0.194,2.398,0.258,3.718c0.073,1.319,0.166,2.711,0.202,4.149c0.039,1.439,0.124,2.927,0.129,4.438
			c0.018,1.511,0.035,3.046,0.052,4.581c-0.015,1.535-0.029,3.07-0.044,4.581c-0.014,1.511-0.093,2.998-0.134,4.438
			c-0.104,2.878-0.266,5.564-0.459,7.867c-0.176,2.302-0.395,4.221-0.563,5.564c-0.167,1.343-0.298,2.11-0.298,2.11
			s-0.131-0.768-0.298-2.11c-0.168-1.344-0.387-3.263-0.563-5.564c-0.194-2.303-0.355-4.989-0.459-7.867
			c-0.042-1.439-0.12-2.927-0.134-4.438c-0.015-1.511-0.029-3.046-0.044-4.581c0.018-1.535,0.035-3.07,0.052-4.581
			c0.006-1.511,0.09-2.998,0.129-4.438c0.036-1.438,0.129-2.83,0.202-4.149c0.064-1.319,0.165-2.566,0.258-3.718
			c0.176-2.302,0.394-4.221,0.561-5.564C130.19,186.73,130.32,185.963,130.32,185.963z"/>
	</g>
	<g>
		<path fill="#543E22" d="M155.612,282.313c0,0-0.13-0.738-0.297-2.029c-0.167-1.292-0.384-3.137-0.561-5.351
			c-0.093-1.106-0.194-2.306-0.258-3.574c-0.073-1.269-0.166-2.605-0.202-3.989c-0.039-1.384-0.123-2.813-0.13-4.267
			c-0.017-1.453-0.034-2.929-0.052-4.404c0.015-1.477,0.029-2.952,0.044-4.405c0.014-1.453,0.093-2.883,0.134-4.267
			c0.105-2.767,0.267-5.35,0.46-7.563c0.177-2.214,0.395-4.059,0.563-5.351c0.168-1.291,0.299-2.029,0.299-2.029
			s0.131,0.738,0.299,2.029c0.168,1.292,0.386,3.137,0.563,5.351c0.193,2.214,0.354,4.797,0.46,7.563
			c0.041,1.384,0.12,2.813,0.134,4.267c0.015,1.453,0.029,2.929,0.044,4.405c-0.018,1.476-0.035,2.951-0.052,4.404
			c-0.007,1.453-0.091,2.883-0.13,4.267c-0.036,1.384-0.129,2.721-0.202,3.989c-0.063,1.269-0.165,2.468-0.258,3.574
			c-0.177,2.214-0.394,4.059-0.561,5.351C155.742,281.575,155.612,282.313,155.612,282.313z"/>
	</g>
	<g>
		<path fill="#543E22" d="M159.114,189.075c0,0,0.13,0.639,0.297,1.756s0.384,2.713,0.561,4.628
			c0.197,1.915,0.345,4.149,0.469,6.543c0.111,2.395,0.169,4.948,0.174,7.502c-0.004,2.553-0.06,5.106-0.17,7.501
			c-0.123,2.394-0.271,4.628-0.469,6.543c-0.177,1.915-0.395,3.511-0.563,4.628s-0.299,1.756-0.299,1.756s-0.131-0.639-0.299-1.756
			s-0.386-2.713-0.563-4.628c-0.198-1.915-0.346-4.149-0.469-6.543c-0.11-2.395-0.166-4.948-0.17-7.501
			c0.005-2.554,0.063-5.107,0.174-7.502c0.124-2.394,0.271-4.628,0.469-6.543c0.177-1.915,0.394-3.511,0.561-4.628
			S159.114,189.075,159.114,189.075z"/>
	</g>
	<g>
		<path fill="#543E22" d="M139.324,281.332c0,0-0.13-0.839-0.297-2.308c-0.167-1.468-0.384-3.565-0.561-6.082
			c-0.093-1.259-0.194-2.622-0.258-4.064c-0.073-1.442-0.166-2.963-0.202-4.536c-0.039-1.572-0.124-3.198-0.129-4.85
			c-0.018-1.652-0.035-3.33-0.052-5.008c0.015-1.679,0.029-3.356,0.044-5.008c0.014-1.652,0.093-3.278,0.134-4.851
			c0.104-3.146,0.266-6.083,0.459-8.601c0.176-2.517,0.395-4.614,0.563-6.082c0.167-1.469,0.298-2.308,0.298-2.308
			s0.131,0.839,0.298,2.308c0.168,1.468,0.387,3.565,0.563,6.082c0.194,2.518,0.355,5.454,0.459,8.601
			c0.042,1.572,0.12,3.198,0.134,4.851c0.015,1.651,0.029,3.329,0.044,5.008c-0.018,1.678-0.035,3.355-0.052,5.008
			c-0.006,1.651-0.09,3.277-0.129,4.85c-0.036,1.573-0.129,3.094-0.202,4.536c-0.064,1.442-0.165,2.806-0.258,4.064
			c-0.176,2.517-0.394,4.614-0.561,6.082C139.454,280.493,139.324,281.332,139.324,281.332z"/>
	</g>
	<g>
		<path fill="#543E22" d="M148.612,220.313c0,0-0.13-0.738-0.297-2.029c-0.167-1.292-0.384-3.137-0.561-5.351
			c-0.093-1.106-0.194-2.306-0.258-3.574c-0.073-1.269-0.166-2.605-0.202-3.989c-0.039-1.384-0.123-2.813-0.13-4.267
			c-0.017-1.453-0.034-2.929-0.052-4.404c0.015-1.477,0.029-2.952,0.044-4.405c0.014-1.453,0.093-2.883,0.134-4.267
			c0.105-2.767,0.267-5.35,0.46-7.563c0.177-2.214,0.395-4.059,0.563-5.351c0.168-1.291,0.299-2.029,0.299-2.029
			s0.131,0.738,0.299,2.029c0.168,1.292,0.386,3.137,0.563,5.351c0.193,2.214,0.354,4.797,0.46,7.563
			c0.041,1.384,0.12,2.813,0.134,4.267c0.015,1.453,0.029,2.929,0.044,4.405c-0.018,1.476-0.035,2.951-0.052,4.404
			c-0.007,1.453-0.091,2.883-0.13,4.267c-0.036,1.384-0.129,2.721-0.202,3.989c-0.063,1.269-0.165,2.468-0.258,3.574
			c-0.177,2.214-0.394,4.059-0.561,5.351C148.742,219.575,148.612,220.313,148.612,220.313z"/>
	</g>
</g>
<g id="Layer_1">
	<rect x="9.893" y="44.788" fill="#7C622E" width="266.404" height="153.36"/>
</g>
<g id="Layer_6">
	<g>
		<defs>
			<rect id="SVGID_1_" x="9.893" y="43.788" width="266.404" height="153.36"/>
		</defs>
		<clipPath id="SVGID_2_">
			<use xlink:href="#SVGID_1_"  overflow="visible"/>
		</clipPath>
		<g clip-path="url(#SVGID_2_)">
			<path fill="#6D542C" d="M0,63.039c0,0,0.462-0.06,1.328-0.171c0.866-0.095,2.136-0.27,3.753-0.422
				c3.233-0.341,7.853-0.752,13.396-1.137c5.543-0.375,12.011-0.703,18.939-0.922c3.465-0.112,7.045-0.203,10.683-0.253
				c3.638-0.067,7.333-0.076,11.029-0.093c3.695,0.016,7.391,0.021,11.029,0.089c3.638,0.044,7.218,0.142,10.683,0.25
				c6.929,0.218,13.396,0.546,18.939,0.922c5.543,0.385,10.163,0.799,13.396,1.142c1.617,0.153,2.887,0.328,3.753,0.424
				c0.866,0.112,1.328,0.172,1.328,0.172s-0.462,0.06-1.328,0.172c-0.866,0.096-2.136,0.271-3.753,0.424
				c-3.233,0.343-7.853,0.757-13.396,1.142c-5.543,0.375-12.011,0.704-18.939,0.922c-3.465,0.107-7.045,0.206-10.683,0.25
				c-3.638,0.067-7.333,0.073-11.029,0.089c-3.695-0.017-7.391-0.026-11.029-0.093c-3.638-0.05-7.218-0.141-10.683-0.253
				c-6.929-0.22-13.396-0.548-18.939-0.922c-5.543-0.384-10.163-0.795-13.396-1.137c-1.617-0.152-2.887-0.327-3.753-0.422
				C0.462,63.099,0,63.039,0,63.039z"/>
		</g>
		<g clip-path="url(#SVGID_2_)">
			<path fill="#6D542C" d="M6.583,138.136c0,0,0.284-0.06,0.817-0.171c0.533-0.095,1.314-0.27,2.309-0.422
				c1.99-0.345,4.832-0.766,8.243-1.137c3.411-0.375,7.39-0.703,11.653-0.922c2.132-0.112,4.334-0.203,6.573-0.253
				c2.238-0.067,4.512-0.076,6.786-0.093c2.274,0.016,4.548,0.021,6.786,0.089c2.238,0.044,4.441,0.142,6.573,0.25
				c4.263,0.218,8.243,0.546,11.653,0.922c3.411,0.372,6.253,0.794,8.243,1.142c0.995,0.153,1.776,0.328,2.309,0.424
				c0.533,0.112,0.817,0.172,0.817,0.172s-0.284,0.06-0.817,0.172c-0.533,0.096-1.314,0.271-2.309,0.424
				c-1.99,0.348-4.832,0.771-8.243,1.142c-3.411,0.375-7.39,0.704-11.653,0.922c-2.132,0.107-4.334,0.206-6.573,0.25
				c-2.238,0.067-4.512,0.073-6.786,0.089c-2.274-0.017-4.548-0.026-6.786-0.093c-2.238-0.05-4.441-0.141-6.573-0.253
				c-4.263-0.22-8.243-0.548-11.653-0.922c-3.411-0.371-6.253-0.792-8.243-1.137c-0.995-0.152-1.776-0.328-2.309-0.422
				C6.868,138.196,6.583,138.136,6.583,138.136z"/>
		</g>
		<g clip-path="url(#SVGID_2_)">
			<path fill="#6D542C" d="M-9.37,180.159c0,0,0.378-0.06,1.088-0.172c0.71-0.095,1.75-0.27,3.075-0.422
				c2.649-0.341,6.434-0.752,10.976-1.137c4.542-0.374,9.84-0.702,15.517-0.922c2.838-0.113,5.771-0.203,8.752-0.253
				c2.98-0.067,6.008-0.077,9.036-0.094c3.027,0.017,6.055,0.021,9.036,0.089c2.98,0.044,5.914,0.143,8.752,0.249
				c5.677,0.219,10.976,0.547,15.517,0.922c4.542,0.386,8.326,0.799,10.976,1.143c1.325,0.153,2.365,0.328,3.075,0.424
				c0.709,0.113,1.088,0.173,1.088,0.173s-0.378,0.06-1.088,0.173c-0.71,0.096-1.75,0.271-3.075,0.424
				c-2.649,0.344-6.434,0.757-10.976,1.143c-4.542,0.375-9.84,0.703-15.517,0.922c-2.838,0.106-5.771,0.205-8.752,0.249
				c-2.98,0.067-6.008,0.072-9.036,0.089c-3.028-0.017-6.056-0.026-9.036-0.094c-2.98-0.05-5.914-0.14-8.752-0.253
				c-5.677-0.22-10.976-0.548-15.517-0.922c-4.542-0.385-8.326-0.796-10.976-1.137c-1.325-0.152-2.365-0.327-3.075-0.422
				C-8.991,180.219-9.37,180.159-9.37,180.159z"/>
		</g>
		<g clip-path="url(#SVGID_2_)">
			<path fill="#6D542C" d="M308.53,97.28c0,0-0.457,0.06-1.315,0.171c-0.857,0.095-2.116,0.27-3.717,0.422
				c-3.203,0.341-7.777,0.752-13.268,1.137c-5.49,0.375-11.896,0.703-18.758,0.922c-3.432,0.112-6.977,0.203-10.58,0.253
				c-3.603,0.067-7.263,0.076-10.922,0.093c-3.66-0.016-7.32-0.021-10.923-0.089c-3.604-0.044-7.148-0.142-10.58-0.25
				c-6.862-0.218-13.268-0.546-18.758-0.922c-5.49-0.385-10.064-0.799-13.268-1.142c-1.601-0.153-2.859-0.328-3.717-0.424
				c-0.858-0.112-1.315-0.172-1.315-0.172s0.457-0.06,1.315-0.172c0.857-0.096,2.116-0.271,3.717-0.424
				c3.203-0.343,7.777-0.757,13.268-1.142c5.49-0.375,11.896-0.704,18.758-0.922c3.432-0.107,6.977-0.206,10.58-0.25
				c3.603-0.067,7.263-0.073,10.923-0.089c3.659,0.017,7.319,0.026,10.922,0.093c3.604,0.05,7.148,0.141,10.58,0.253
				c6.862,0.22,13.268,0.548,18.758,0.922c5.49,0.384,10.064,0.795,13.268,1.137c1.601,0.152,2.859,0.327,3.717,0.422
				C308.073,97.221,308.53,97.28,308.53,97.28z"/>
		</g>
		<g clip-path="url(#SVGID_2_)">
			<path fill="#6D542C" d="M308.53,139.304c0,0-0.266,0.06-0.765,0.171c-0.499,0.095-1.23,0.27-2.161,0.422
				c-1.862,0.345-4.521,0.766-7.714,1.137c-3.191,0.375-6.916,0.702-10.905,0.922c-1.995,0.112-4.057,0.203-6.151,0.253
				c-2.095,0.067-4.223,0.076-6.35,0.093c-2.128-0.016-4.256-0.021-6.351-0.089c-2.095-0.044-4.156-0.142-6.151-0.25
				c-3.99-0.218-7.714-0.546-10.905-0.922c-3.192-0.372-5.852-0.794-7.714-1.142c-0.931-0.153-1.662-0.328-2.161-0.424
				c-0.499-0.112-0.765-0.172-0.765-0.172s0.266-0.06,0.765-0.172c0.499-0.096,1.23-0.271,2.161-0.424
				c1.862-0.348,4.521-0.771,7.714-1.142c3.191-0.375,6.915-0.704,10.905-0.922c1.995-0.107,4.057-0.206,6.151-0.25
				c2.095-0.067,4.223-0.073,6.351-0.089c2.127,0.017,4.255,0.026,6.35,0.093c2.095,0.05,4.156,0.141,6.151,0.253
				c3.989,0.22,7.714,0.548,10.905,0.922c3.192,0.371,5.852,0.792,7.714,1.137c0.931,0.152,1.662,0.327,2.161,0.422
				C308.265,139.244,308.53,139.304,308.53,139.304z"/>
		</g>
		<g clip-path="url(#SVGID_2_)">
			<path fill="#6D542C" d="M308.53,180.159c0,0-0.595,0.06-1.709,0.172c-1.114,0.095-2.748,0.27-4.828,0.422
				c-2.08,0.161-4.605,0.376-7.503,0.549c-2.897,0.191-6.166,0.409-9.731,0.572c-3.566,0.187-7.429,0.389-11.515,0.517
				c-4.086,0.146-8.395,0.332-12.852,0.403c-4.457,0.078-9.063,0.247-13.743,0.259c-4.681,0.035-9.435,0.069-14.188,0.104
				c-4.755-0.015-9.509-0.021-14.189-0.088c-4.68-0.028-9.286-0.186-13.743-0.269c-4.457-0.073-8.766-0.251-12.852-0.402
				c-4.086-0.129-7.948-0.326-11.515-0.517c-3.565-0.165-6.834-0.38-9.731-0.574c-2.897-0.175-5.423-0.389-7.503-0.552
				c-2.08-0.153-3.714-0.328-4.828-0.424c-1.114-0.113-1.709-0.173-1.709-0.173s0.595-0.06,1.709-0.173
				c1.114-0.096,2.748-0.271,4.828-0.424c2.08-0.163,4.605-0.377,7.503-0.552c2.897-0.194,6.166-0.409,9.731-0.574
				c3.566-0.19,7.429-0.388,11.515-0.517c4.086-0.151,8.395-0.329,12.852-0.402c4.457-0.083,9.063-0.24,13.743-0.269
				c4.681-0.067,9.435-0.073,14.189-0.088c4.754,0.035,9.508,0.069,14.188,0.104c4.68,0.012,9.286,0.181,13.743,0.259
				c4.457,0.071,8.766,0.258,12.852,0.403c4.086,0.128,7.948,0.33,11.515,0.517c3.565,0.163,6.834,0.381,9.731,0.572
				c2.897,0.173,5.423,0.388,7.503,0.549c2.08,0.152,3.714,0.327,4.828,0.422C307.936,180.1,308.53,180.159,308.53,180.159z"/>
		</g>
		<g clip-path="url(#SVGID_2_)">
			<path fill="#6D542C" d="M278.569,56.424c0,0-0.129,0.06-0.371,0.171c-0.242,0.095-0.598,0.27-1.05,0.422
				c-0.904,0.345-2.196,0.766-3.747,1.137c-1.55,0.375-3.359,0.703-5.297,0.922c-0.969,0.112-1.971,0.203-2.987,0.253
				c-1.018,0.067-2.052,0.076-3.085,0.093c-1.033-0.016-2.067-0.021-3.085-0.089c-1.017-0.044-2.019-0.142-2.987-0.25
				c-1.938-0.218-3.747-0.546-5.297-0.922c-1.551-0.372-2.843-0.794-3.747-1.142c-0.452-0.153-0.808-0.328-1.05-0.424
				c-0.242-0.112-0.371-0.172-0.371-0.172s0.129-0.06,0.371-0.172c0.242-0.096,0.598-0.271,1.05-0.424
				c0.904-0.348,2.196-0.771,3.747-1.142c1.55-0.375,3.359-0.704,5.297-0.922c0.969-0.107,1.971-0.206,2.987-0.25
				c1.018-0.067,2.052-0.073,3.085-0.089c1.033,0.017,2.067,0.026,3.085,0.093c1.017,0.05,2.019,0.141,2.987,0.253
				c1.938,0.22,3.747,0.548,5.297,0.922c1.551,0.371,2.843,0.792,3.747,1.137c0.452,0.152,0.808,0.327,1.05,0.422
				C278.44,56.365,278.569,56.424,278.569,56.424z"/>
		</g>
		<g clip-path="url(#SVGID_2_)">
			<path fill="#6D542C" d="M-35.049,97.28c0,0,0.385-0.06,1.105-0.171c0.721-0.095,1.779-0.27,3.125-0.422
				c2.692-0.341,6.537-0.752,11.152-1.137c4.614-0.375,9.998-0.703,15.766-0.922c2.884-0.112,5.864-0.203,8.893-0.253
				c3.028-0.067,6.105-0.076,9.181-0.093c3.076,0.016,6.153,0.021,9.181,0.089c3.028,0.044,6.008,0.142,8.893,0.25
				c5.768,0.218,11.152,0.546,15.766,0.922c4.615,0.385,8.46,0.799,11.152,1.142c1.346,0.153,2.403,0.328,3.125,0.424
				c0.721,0.112,1.105,0.172,1.105,0.172s-0.385,0.06-1.105,0.172c-0.721,0.096-1.779,0.271-3.125,0.424
				c-2.692,0.343-6.537,0.757-11.152,1.142c-4.614,0.375-9.998,0.704-15.766,0.922c-2.884,0.107-5.864,0.206-8.893,0.25
				c-3.028,0.067-6.105,0.073-9.181,0.089c-3.076-0.017-6.153-0.026-9.181-0.093c-3.028-0.05-6.008-0.141-8.893-0.253
				c-5.768-0.22-11.152-0.548-15.766-0.922c-4.615-0.384-8.46-0.795-11.152-1.137c-1.346-0.152-2.403-0.327-3.125-0.422
				C-34.665,97.34-35.049,97.28-35.049,97.28z"/>
		</g>
		<g clip-path="url(#SVGID_2_)">
			<path fill="#6D542C" d="M108.53,136.58c0,0,0.31-0.06,0.892-0.171c0.581-0.095,1.434-0.27,2.519-0.422
				c2.17-0.341,5.271-0.752,8.992-1.137c3.721-0.375,8.062-0.703,12.713-0.922c2.326-0.112,4.729-0.203,7.17-0.253
				c2.441-0.067,4.922-0.076,7.402-0.093c2.481,0.016,4.962,0.021,7.403,0.089c2.442,0.044,4.845,0.142,7.171,0.25
				c4.65,0.218,8.991,0.546,12.713,0.922c3.721,0.385,6.821,0.799,8.991,1.142c1.086,0.153,1.938,0.328,2.52,0.424
				c0.581,0.112,0.892,0.172,0.892,0.172s-0.311,0.06-0.892,0.172c-0.581,0.096-1.434,0.271-2.52,0.424
				c-2.17,0.343-5.271,0.757-8.991,1.142c-3.722,0.375-8.063,0.704-12.713,0.922c-2.326,0.107-4.729,0.206-7.171,0.25
				c-2.441,0.067-4.922,0.073-7.403,0.089c-2.48-0.017-4.961-0.026-7.402-0.093c-2.442-0.05-4.845-0.141-7.17-0.253
				c-4.651-0.22-8.992-0.548-12.713-0.922c-3.721-0.384-6.822-0.795-8.992-1.137c-1.085-0.152-1.938-0.328-2.519-0.422
				C108.84,136.639,108.53,136.58,108.53,136.58z"/>
		</g>
		<g clip-path="url(#SVGID_2_)">
			<path fill="#6D542C" d="M229.542,76.658c0,0-0.508,0.06-1.46,0.171c-0.951,0.095-2.348,0.27-4.124,0.422
				c-3.554,0.341-8.631,0.752-14.723,1.137c-6.092,0.375-13.199,0.703-20.813,0.922c-3.808,0.112-7.742,0.203-11.74,0.253
				c-3.998,0.067-8.059,0.076-12.12,0.093c-4.062-0.016-8.122-0.021-12.12-0.089c-3.998-0.044-7.933-0.142-11.74-0.25
				c-7.615-0.218-14.722-0.546-20.814-0.922c-6.092-0.385-11.169-0.799-14.722-1.142c-1.777-0.153-3.173-0.328-4.125-0.424
				c-0.952-0.112-1.459-0.172-1.459-0.172s0.508-0.06,1.459-0.172c0.952-0.096,2.348-0.271,4.125-0.424
				c3.553-0.343,8.63-0.757,14.722-1.142c6.092-0.375,13.199-0.704,20.814-0.922c3.807-0.107,7.742-0.206,11.74-0.25
				c3.998-0.067,8.059-0.073,12.12-0.089c4.062,0.017,8.122,0.026,12.12,0.093c3.998,0.05,7.933,0.141,11.74,0.253
				c7.614,0.22,14.722,0.548,20.813,0.922c6.092,0.384,11.169,0.795,14.723,1.137c1.776,0.152,3.173,0.327,4.124,0.422
				C229.034,76.598,229.542,76.658,229.542,76.658z"/>
		</g>
		<g clip-path="url(#SVGID_2_)">
			<path fill="#6D542C" d="M42.965,160.315c0,0,0.241-0.06,0.693-0.172c0.452-0.095,1.114-0.27,1.957-0.422
				c1.687-0.345,4.096-0.767,6.987-1.137c2.891-0.374,6.264-0.702,9.877-0.922c1.807-0.113,3.674-0.203,5.571-0.253
				c1.897-0.067,3.824-0.077,5.751-0.094c1.928,0.017,3.855,0.021,5.752,0.089c1.897,0.044,3.765,0.143,5.571,0.249
				c3.614,0.219,6.986,0.547,9.877,0.922c2.891,0.372,5.3,0.795,6.987,1.143c0.843,0.153,1.505,0.328,1.957,0.424
				c0.452,0.113,0.693,0.173,0.693,0.173s-0.241,0.06-0.693,0.173c-0.452,0.096-1.114,0.271-1.957,0.424
				c-1.687,0.348-4.096,0.771-6.987,1.143c-2.891,0.375-6.264,0.703-9.877,0.922c-1.807,0.106-3.674,0.205-5.571,0.249
				c-1.897,0.067-3.824,0.072-5.752,0.089c-1.927-0.017-3.854-0.026-5.751-0.094c-1.897-0.05-3.765-0.14-5.571-0.253
				c-3.614-0.22-6.986-0.548-9.877-0.922c-2.891-0.37-5.3-0.792-6.987-1.137c-0.843-0.152-1.505-0.327-1.957-0.422
				C43.206,160.375,42.965,160.315,42.965,160.315z"/>
		</g>
	</g>
</g>
<g id="Layer_5">
	<g>
		<defs>
			<rect id="SVGID_3_" x="9.893" y="42.788" width="266.404" height="153.36"/>
		</defs>
		<clipPath id="SVGID_4_">
			<use xlink:href="#SVGID_3_"  overflow="visible"/>
		</clipPath>
		<g clip-path="url(#SVGID_4_)">
			<path fill="#8E703C" d="M0,62.039c0,0,0.462-0.06,1.328-0.171c0.866-0.095,2.136-0.27,3.753-0.422
				c3.233-0.341,7.853-0.752,13.396-1.137c5.543-0.375,12.011-0.703,18.939-0.922c3.465-0.112,7.045-0.203,10.683-0.253
				c3.638-0.067,7.333-0.076,11.029-0.093c3.695,0.016,7.391,0.021,11.029,0.089c3.638,0.044,7.218,0.142,10.683,0.25
				c6.929,0.218,13.396,0.546,18.939,0.922c5.543,0.385,10.163,0.799,13.396,1.142c1.617,0.153,2.887,0.328,3.753,0.424
				c0.866,0.112,1.328,0.172,1.328,0.172s-0.462,0.06-1.328,0.172c-0.866,0.096-2.136,0.271-3.753,0.424
				c-3.233,0.343-7.853,0.757-13.396,1.142c-5.543,0.375-12.011,0.704-18.939,0.922c-3.465,0.107-7.045,0.206-10.683,0.25
				c-3.638,0.067-7.333,0.073-11.029,0.089c-3.695-0.017-7.391-0.026-11.029-0.093c-3.638-0.05-7.218-0.141-10.683-0.253
				c-6.929-0.22-13.396-0.548-18.939-0.922c-5.543-0.384-10.163-0.795-13.396-1.137c-1.617-0.152-2.887-0.327-3.753-0.422
				C0.462,62.099,0,62.039,0,62.039z"/>
		</g>
		<g clip-path="url(#SVGID_4_)">
			<path fill="#8E703C" d="M6.583,137.136c0,0,0.284-0.06,0.817-0.171c0.533-0.095,1.314-0.27,2.309-0.422
				c1.99-0.345,4.832-0.766,8.243-1.137c3.411-0.375,7.39-0.703,11.653-0.922c2.132-0.112,4.334-0.203,6.573-0.253
				c2.238-0.067,4.512-0.076,6.786-0.093c2.274,0.016,4.548,0.021,6.786,0.089c2.238,0.044,4.441,0.142,6.573,0.25
				c4.263,0.218,8.243,0.546,11.653,0.922c3.411,0.372,6.253,0.794,8.243,1.142c0.995,0.153,1.776,0.328,2.309,0.424
				c0.533,0.112,0.817,0.172,0.817,0.172s-0.284,0.06-0.817,0.172c-0.533,0.096-1.314,0.271-2.309,0.424
				c-1.99,0.348-4.832,0.771-8.243,1.142c-3.411,0.375-7.39,0.704-11.653,0.922c-2.132,0.107-4.334,0.205-6.573,0.25
				c-2.238,0.066-4.512,0.072-6.786,0.088c-2.274-0.017-4.548-0.025-6.786-0.093c-2.238-0.05-4.441-0.141-6.573-0.253
				c-4.263-0.22-8.243-0.548-11.653-0.922c-3.411-0.371-6.253-0.792-8.243-1.137c-0.995-0.152-1.776-0.328-2.309-0.422
				C6.868,137.196,6.583,137.136,6.583,137.136z"/>
		</g>
		<g clip-path="url(#SVGID_4_)">
			<path fill="#8E703C" d="M-9.37,179.159c0,0,0.378-0.06,1.088-0.172c0.71-0.095,1.75-0.27,3.075-0.422
				c2.649-0.341,6.434-0.752,10.976-1.137c4.542-0.374,9.84-0.702,15.517-0.922c2.838-0.113,5.771-0.203,8.752-0.253
				c2.98-0.067,6.008-0.077,9.036-0.094c3.027,0.017,6.055,0.021,9.036,0.089c2.98,0.044,5.914,0.143,8.752,0.249
				c5.677,0.219,10.976,0.547,15.517,0.922c4.542,0.386,8.326,0.799,10.976,1.143c1.325,0.153,2.365,0.328,3.075,0.424
				c0.709,0.113,1.088,0.173,1.088,0.173s-0.378,0.06-1.088,0.173c-0.71,0.096-1.75,0.271-3.075,0.424
				c-2.649,0.344-6.434,0.757-10.976,1.143c-4.542,0.375-9.84,0.703-15.517,0.922c-2.838,0.106-5.771,0.205-8.752,0.249
				c-2.98,0.067-6.008,0.072-9.036,0.089c-3.028-0.017-6.056-0.026-9.036-0.094c-2.98-0.05-5.914-0.14-8.752-0.253
				c-5.677-0.22-10.976-0.548-15.517-0.922c-4.542-0.385-8.326-0.796-10.976-1.137c-1.325-0.152-2.365-0.327-3.075-0.422
				C-8.991,179.219-9.37,179.159-9.37,179.159z"/>
		</g>
		<g clip-path="url(#SVGID_4_)">
			<path fill="#8E703C" d="M308.53,96.28c0,0-0.457,0.06-1.315,0.171c-0.857,0.095-2.116,0.27-3.717,0.422
				c-3.203,0.341-7.777,0.752-13.268,1.137c-5.49,0.375-11.896,0.703-18.758,0.922c-3.432,0.112-6.977,0.203-10.58,0.253
				c-3.603,0.067-7.263,0.076-10.922,0.093c-3.66-0.016-7.32-0.021-10.923-0.089c-3.604-0.044-7.148-0.142-10.58-0.25
				c-6.862-0.218-13.268-0.546-18.758-0.922c-5.49-0.385-10.064-0.799-13.268-1.142c-1.601-0.153-2.859-0.328-3.717-0.424
				c-0.858-0.112-1.315-0.172-1.315-0.172s0.457-0.06,1.315-0.172c0.857-0.096,2.116-0.271,3.717-0.424
				c3.203-0.343,7.777-0.757,13.268-1.142c5.49-0.375,11.896-0.704,18.758-0.922c3.432-0.107,6.977-0.206,10.58-0.25
				c3.603-0.067,7.263-0.073,10.923-0.089c3.659,0.017,7.319,0.026,10.922,0.093c3.604,0.05,7.148,0.141,10.58,0.253
				c6.862,0.22,13.268,0.548,18.758,0.922c5.49,0.384,10.064,0.795,13.268,1.137c1.601,0.152,2.859,0.327,3.717,0.422
				C308.073,96.221,308.53,96.28,308.53,96.28z"/>
		</g>
		<g clip-path="url(#SVGID_4_)">
			<path fill="#8E703C" d="M308.53,138.304c0,0-0.266,0.06-0.765,0.171c-0.499,0.095-1.23,0.27-2.161,0.422
				c-1.862,0.345-4.521,0.766-7.714,1.137c-3.191,0.374-6.916,0.702-10.905,0.923c-1.995,0.112-4.057,0.202-6.151,0.252
				c-2.095,0.067-4.223,0.077-6.35,0.094c-2.128-0.017-4.256-0.021-6.351-0.089c-2.095-0.044-4.156-0.143-6.151-0.249
				c-3.99-0.219-7.714-0.547-10.905-0.922c-3.192-0.372-5.852-0.795-7.714-1.143c-0.931-0.153-1.662-0.328-2.161-0.424
				c-0.499-0.112-0.765-0.172-0.765-0.172s0.266-0.06,0.765-0.172c0.499-0.096,1.23-0.271,2.161-0.424
				c1.862-0.348,4.521-0.771,7.714-1.142c3.191-0.375,6.915-0.704,10.905-0.922c1.995-0.107,4.057-0.206,6.151-0.25
				c2.095-0.067,4.223-0.073,6.351-0.089c2.127,0.017,4.255,0.026,6.35,0.093c2.095,0.05,4.156,0.141,6.151,0.253
				c3.989,0.22,7.714,0.548,10.905,0.922c3.192,0.371,5.852,0.792,7.714,1.137c0.931,0.152,1.662,0.327,2.161,0.422
				C308.265,138.244,308.53,138.304,308.53,138.304z"/>
		</g>
		<g clip-path="url(#SVGID_4_)">
			<path fill="#8E703C" d="M308.53,179.159c0,0-0.595,0.06-1.709,0.172c-1.114,0.095-2.748,0.27-4.828,0.422
				c-2.08,0.161-4.605,0.376-7.503,0.549c-2.897,0.191-6.166,0.409-9.731,0.572c-3.566,0.187-7.429,0.389-11.515,0.517
				c-4.086,0.146-8.395,0.332-12.852,0.403c-4.457,0.078-9.063,0.247-13.743,0.259c-4.681,0.035-9.435,0.069-14.188,0.104
				c-4.755-0.015-9.509-0.021-14.189-0.088c-4.68-0.028-9.286-0.186-13.743-0.269c-4.457-0.073-8.766-0.251-12.852-0.402
				c-4.086-0.129-7.948-0.326-11.515-0.517c-3.565-0.165-6.834-0.38-9.731-0.574c-2.897-0.175-5.423-0.389-7.503-0.552
				c-2.08-0.153-3.714-0.328-4.828-0.424c-1.114-0.113-1.709-0.173-1.709-0.173s0.595-0.06,1.709-0.173
				c1.114-0.096,2.748-0.271,4.828-0.424c2.08-0.163,4.605-0.377,7.503-0.552c2.897-0.194,6.166-0.409,9.731-0.574
				c3.566-0.19,7.429-0.388,11.515-0.517c4.086-0.151,8.395-0.329,12.852-0.402c4.457-0.083,9.063-0.24,13.743-0.269
				c4.681-0.067,9.435-0.073,14.189-0.088c4.754,0.035,9.508,0.069,14.188,0.104c4.68,0.012,9.286,0.181,13.743,0.259
				c4.457,0.071,8.766,0.258,12.852,0.403c4.086,0.128,7.948,0.33,11.515,0.517c3.565,0.163,6.834,0.381,9.731,0.572
				c2.897,0.173,5.423,0.388,7.503,0.549c2.08,0.152,3.714,0.327,4.828,0.422C307.936,179.1,308.53,179.159,308.53,179.159z"/>
		</g>
		<g clip-path="url(#SVGID_4_)">
			<path fill="#8E703C" d="M278.569,55.424c0,0-0.129,0.06-0.371,0.171c-0.242,0.095-0.598,0.27-1.05,0.422
				c-0.904,0.345-2.196,0.766-3.747,1.137c-1.55,0.375-3.359,0.703-5.297,0.922c-0.969,0.112-1.971,0.203-2.987,0.253
				c-1.018,0.067-2.052,0.076-3.085,0.093c-1.033-0.016-2.067-0.021-3.085-0.089c-1.017-0.044-2.019-0.142-2.987-0.25
				c-1.938-0.218-3.747-0.546-5.297-0.922c-1.551-0.372-2.843-0.794-3.747-1.142c-0.452-0.153-0.808-0.328-1.05-0.424
				c-0.242-0.112-0.371-0.172-0.371-0.172s0.129-0.06,0.371-0.172c0.242-0.096,0.598-0.271,1.05-0.424
				c0.904-0.348,2.196-0.771,3.747-1.142c1.55-0.375,3.359-0.704,5.297-0.922c0.969-0.107,1.971-0.206,2.987-0.25
				c1.018-0.067,2.052-0.073,3.085-0.089c1.033,0.017,2.067,0.026,3.085,0.093c1.017,0.05,2.019,0.141,2.987,0.253
				c1.938,0.22,3.747,0.548,5.297,0.922c1.551,0.371,2.843,0.792,3.747,1.137c0.452,0.152,0.808,0.327,1.05,0.422
				C278.44,55.365,278.569,55.424,278.569,55.424z"/>
		</g>
		<g clip-path="url(#SVGID_4_)">
			<path fill="#8E703C" d="M-35.049,96.28c0,0,0.385-0.06,1.105-0.171c0.721-0.095,1.779-0.27,3.125-0.422
				c2.692-0.341,6.537-0.752,11.152-1.137c4.614-0.375,9.998-0.703,15.766-0.922c2.884-0.112,5.864-0.203,8.893-0.253
				c3.028-0.067,6.105-0.076,9.181-0.093c3.076,0.016,6.153,0.021,9.181,0.089c3.028,0.044,6.008,0.142,8.893,0.25
				c5.768,0.218,11.152,0.546,15.766,0.922c4.615,0.385,8.46,0.799,11.152,1.142c1.346,0.153,2.403,0.328,3.125,0.424
				c0.721,0.112,1.105,0.172,1.105,0.172s-0.385,0.06-1.105,0.172c-0.721,0.096-1.779,0.271-3.125,0.424
				c-2.692,0.343-6.537,0.757-11.152,1.142c-4.614,0.375-9.998,0.704-15.766,0.922c-2.884,0.107-5.864,0.206-8.893,0.25
				c-3.028,0.067-6.105,0.073-9.181,0.089c-3.076-0.017-6.153-0.026-9.181-0.093c-3.028-0.05-6.008-0.141-8.893-0.253
				c-5.768-0.22-11.152-0.548-15.766-0.922c-4.615-0.384-8.46-0.795-11.152-1.137c-1.346-0.152-2.403-0.327-3.125-0.422
				C-34.665,96.34-35.049,96.28-35.049,96.28z"/>
		</g>
		<g clip-path="url(#SVGID_4_)">
			<path fill="#8E703C" d="M108.53,135.58c0,0,0.31-0.06,0.892-0.171c0.581-0.095,1.434-0.27,2.519-0.422
				c2.17-0.341,5.271-0.752,8.992-1.137c3.721-0.375,8.062-0.703,12.713-0.922c2.326-0.112,4.729-0.203,7.17-0.253
				c2.441-0.067,4.922-0.076,7.402-0.093c2.481,0.016,4.962,0.021,7.403,0.089c2.442,0.044,4.845,0.142,7.171,0.25
				c4.65,0.218,8.991,0.546,12.713,0.922c3.721,0.385,6.821,0.799,8.991,1.142c1.086,0.153,1.938,0.328,2.52,0.424
				c0.581,0.112,0.892,0.172,0.892,0.172s-0.311,0.06-0.892,0.172c-0.581,0.096-1.434,0.271-2.52,0.424
				c-2.17,0.343-5.271,0.757-8.991,1.142c-3.722,0.375-8.063,0.704-12.713,0.922c-2.326,0.107-4.729,0.206-7.171,0.25
				c-2.441,0.067-4.922,0.073-7.403,0.089c-2.48-0.017-4.961-0.026-7.402-0.093c-2.442-0.05-4.845-0.141-7.17-0.253
				c-4.651-0.22-8.992-0.548-12.713-0.922c-3.721-0.384-6.822-0.795-8.992-1.137c-1.085-0.152-1.938-0.328-2.519-0.422
				C108.84,135.639,108.53,135.58,108.53,135.58z"/>
		</g>
		<g clip-path="url(#SVGID_4_)">
			<path fill="#8E703C" d="M229.542,75.658c0,0-0.508,0.06-1.46,0.171c-0.951,0.095-2.348,0.27-4.124,0.422
				c-3.554,0.341-8.631,0.752-14.723,1.137c-6.092,0.375-13.199,0.703-20.813,0.922c-3.808,0.112-7.742,0.203-11.74,0.253
				c-3.998,0.067-8.059,0.076-12.12,0.093c-4.062-0.016-8.122-0.021-12.12-0.089c-3.998-0.044-7.933-0.142-11.74-0.25
				c-7.615-0.218-14.722-0.546-20.814-0.922c-6.092-0.385-11.169-0.799-14.722-1.142c-1.777-0.153-3.173-0.328-4.125-0.424
				c-0.952-0.112-1.459-0.172-1.459-0.172s0.508-0.06,1.459-0.172c0.952-0.096,2.348-0.271,4.125-0.424
				c3.553-0.343,8.63-0.757,14.722-1.142c6.092-0.375,13.199-0.704,20.814-0.922c3.807-0.107,7.742-0.206,11.74-0.25
				c3.998-0.067,8.059-0.073,12.12-0.089c4.062,0.017,8.122,0.026,12.12,0.093c3.998,0.05,7.933,0.141,11.74,0.253
				c7.614,0.22,14.722,0.548,20.813,0.922c6.092,0.384,11.169,0.795,14.723,1.137c1.776,0.152,3.173,0.327,4.124,0.422
				C229.034,75.598,229.542,75.658,229.542,75.658z"/>
		</g>
		<g clip-path="url(#SVGID_4_)">
			<path fill="#8E703C" d="M42.965,159.315c0,0,0.241-0.06,0.693-0.172c0.452-0.095,1.114-0.27,1.957-0.422
				c1.687-0.345,4.096-0.767,6.987-1.137c2.891-0.374,6.264-0.702,9.877-0.922c1.807-0.113,3.674-0.203,5.571-0.253
				c1.897-0.067,3.824-0.077,5.751-0.094c1.928,0.017,3.855,0.021,5.752,0.089c1.897,0.044,3.765,0.143,5.571,0.249
				c3.614,0.219,6.986,0.547,9.877,0.922c2.891,0.372,5.3,0.795,6.987,1.143c0.843,0.153,1.505,0.328,1.957,0.424
				c0.452,0.113,0.693,0.173,0.693,0.173s-0.241,0.06-0.693,0.173c-0.452,0.096-1.114,0.271-1.957,0.424
				c-1.687,0.348-4.096,0.771-6.987,1.143c-2.891,0.375-6.264,0.703-9.877,0.922c-1.807,0.106-3.674,0.205-5.571,0.249
				c-1.897,0.067-3.824,0.072-5.752,0.089c-1.927-0.017-3.854-0.026-5.751-0.094c-1.897-0.05-3.765-0.14-5.571-0.253
				c-3.614-0.22-6.986-0.548-9.877-0.922c-2.891-0.37-5.3-0.792-6.987-1.137c-0.843-0.152-1.505-0.327-1.957-0.422
				C43.206,159.375,42.965,159.315,42.965,159.315z"/>
		</g>
	</g>
</g>
<g id="Layer_2">
	<path fill="#108632" d="M122.146,245.833c1.151-5.049-1.434,30.479,4.888,20.295s7.642-11.181,5.183-17.845
		s7.64,10.471,2.372,16.44s12.605-8.449,15.414-14.068c2.811-5.619-8.569,28.039-0.492,17.366
		c8.078-10.673,3.26-25.587,5.268-20.507c1.996,5.047-5.199,43.299,5.336,6.97c2.683-9.251,3.139-27.359,3.464-16.219
		c0.015,0.507,0.299,2.237,0.495,3.285c0.592,3.153,3.418,19.093,7.594,28.782c4.176,9.688,18.833,15.146,18.833,15.146H98.245
		c0,0,10.831-6.273,17.121-15.603S121.678,247.887,122.146,245.833z"/>
</g>
<g id="Layer_9">
	<g opacity="0.75">
		<ellipse transform="matrix(0.8586 0.5126 -0.5126 0.8586 82.3075 -57.1859)" cx="144.833" cy="120.633" rx="14.709" ry="33.468"/>
		<path d="M151.706,108.361c0,0-18.534-8.19-9.14-18.586c9.394-10.393,23.581-10.539,31.621-19.075
			C182.226,62.165,151.706,108.361,151.706,108.361z"/>
		<path d="M152.67,108.936c0,0,16.003,12.427,20.693-0.774c4.693-13.201-1.911-25.76,1.787-36.886
			C178.85,60.148,152.67,108.936,152.67,108.936z"/>
		<circle fill="#FFFFFF" cx="145.586" cy="119.479" r="7.575"/>
		<circle cx="145.587" cy="119.479" r="3.172"/>
		<path d="M126.596,137.89c0,0,0.053-29.92-11.541-26.996c-11.594,2.928-3.488,21.307-21.09,25.364
			c-17.603,4.057-8.341-1.493-12.961-0.967c-4.622,0.523-2.866-0.014-5.284-0.43c-2.416-0.418,4.726,4.628,5.331,3.962
			c0.601-0.665,2.272-0.202,2.85,1.579c0.577,1.781,21.458,8.216,27.595-16.84c6.137-25.057,12.38,18.884,12.38,18.884"/>
		<path d="M139.341,144.721c0,0,26.313-14.244,29.237-2.65c2.927,11.594-17.099,13.18-12.316,30.6
			c4.782,17.418,5.271,6.635,7.003,10.949c1.732,4.316,1.371,2.518,2.886,4.447s-6.318-1.965-6.019-2.813
			c0.301-0.844-0.9-2.096-2.742-1.758c-1.842,0.334-17.415-14.992,1.729-32.283c19.145-17.294-22.498-1.936-22.498-1.936"/>
		<g>
			<path d="M178.048,60.957c-0.019-0.726-4.789-1.639-10.714-2.047c-5.926-0.41-10.775-0.16-10.896,0.556l-0.002,0l-1.492,21.615
				l0.21,0.014c0.942,0.672,5.282,1.43,10.525,1.792c5.243,0.361,9.645,0.207,10.67-0.33l0.209,0.016l1.492-21.616L178.048,60.957z"
				/>
			<ellipse transform="matrix(0.9976 0.0689 -0.0689 0.9976 6.0276 -11.2108)" cx="165.611" cy="81.817" rx="19.853" ry="2.644"/>
			<path fill="#FFFFFF" d="M177.794,75.752c-0.061-0.203-5.069-0.707-11.259-1.133c-6.188-0.427-11.222-0.615-11.309-0.425
				l-0.002-0.001l-0.404,5.867l0.217,0.015c1.018,0.234,5.573,0.673,11.051,1.051c5.474,0.379,10.046,0.57,11.086,0.477l0.22,0.014
				l0.402-5.866L177.794,75.752z"/>
			<ellipse transform="matrix(0.9976 0.0688 -0.0688 0.9976 5.5531 -11.2634)" cx="166.227" cy="74.953" rx="10.833" ry="0.851"/>
		</g>
		<path d="M125.742,137.91c0,0-8.424-4.118-13.676,7.131c-5.25,11.251-11.916,9.187-15.245,4.01
			c-2.28-3.547,0.785,6.477,2.549,8.076c0.791,0.717,4.13,2.304,7.741,1.344c4.452-1.184,10.382-5.965,9.178-8.694
			c-1.766-4.006,9.08-6.685,9.26-4.882"/>
		<path d="M127.61,142.986c0,0-8.293-1.809-10.489,9.212c-2.196,11.021-8.502,10.638-12.542,6.803
			c-2.769-2.626,2.081,5.526,3.977,6.554c0.85,0.459,4.127,1.137,7.095-0.486c3.66-1.996,7.844-7.476,6.2-9.617
			c-2.415-3.142,6.545-7.83,7.089-6.282"/>
		<path d="M138.875,145.752c0,0,7.624,5.46,0.211,15.42c-7.41,9.963-2.43,14.85,3.707,15.322c4.206,0.322-6.071,2.383-8.318,1.588
			c-1.005-0.355-3.987-2.543-4.856-6.176c-1.071-4.48,0.325-11.969,3.298-12.203c4.364-0.348,1.575-11.166-0.098-10.467"/>
		<path d="M133.522,146.516c0,0,5.527,6.441-3.131,13.603c-8.658,7.163-5.332,12.534-0.038,14.269
			c3.625,1.189-5.852,0.789-7.656-0.391c-0.807-0.529-2.959-3.096-2.941-6.475c0.024-4.17,2.86-10.455,5.525-10.021
			c3.911,0.635,3.787-9.479,2.165-9.222"/>
	</g>
</g>
<g id="Layer_10">
</g>
</svg>
